# xmcd
#
# Track frame offsets: 
#        150
#        18820
#        36401
#        51750
#        69273
#        86204
#        103483
#        119633
#        135695
#        149839
#
# Disc length: 2200 seconds
#
# Revision: 0
# Processed by: cddbd v1.5.2PL0 Copyright (c) Steve Scherf et al.
# Submitted via: ExactAudioCopy v0.99pb4
#
DISCID=9a08960a
DTITLE=น้องแตงโม - ปริญญาน้ำตาแม่
DYEAR=2009
DGENRE=Country
TTITLE0=ปริญญาน้ำตาแม่
TTITLE1=หนูคิดถึงพ่อ
TTITLE2=ฟุตฟิตฟอไฟ
TTITLE3=ของฝากจากยาย
TTITLE4=ไทยเต็มร้อย
TTITLE5=ถนนคนเศร้า
TTITLE6=ดั้งหาย
TTITLE7=ล.ลิงทะโมน
TTITLE8=โป้งแปะ
TTITLE9=รักตัวกลัวตาย
EXTD=
EXTT0=
EXTT1=
EXTT2=
EXTT3=
EXTT4=
EXTT5=
EXTT6=
EXTT7=
EXTT8=
EXTT9=
PLAYORDER=
